<svg width="46" height="54" viewBox="0 0 46 54" fill="none" xmlns="http://www.w3.org/2000/svg">
    <path d="M45 22.9618C44.754 26.1163 44.2139 27.7779 43.4081 28.9602C42.6418 30.0844 41.5934 30.859 39.9778 32.0525C39.833 32.1595 39.6836 32.2699 39.5294 32.3842C35.9352 35.0489 30.6053 39.3044 22.9873 51.6039C15.1424 39.3014 9.81693 35.05 6.28974 32.3892C6.18334 32.3089 6.07932 32.2306 5.97762 32.154C4.32447 30.909 3.2829 30.1246 2.53236 28.9763C1.75827 27.792 1.2465 26.1258 1.00003 22.9618C1.02066 10.8291 10.8625 1 23 1C35.1375 1 44.9793 10.8291 45 22.9618Z"
          fill="white" stroke="#8C5A43" stroke-width="2"/>
    <ellipse cx="23" cy="21" rx="7" ry="12" fill="#8C5A43"/>
    <path d="M23 9C23 9.5 22.0667 11 23 14C23.9333 17 23.4667 19.5 23 20.5C22.5333 21.5 22.0667 23 23 26.75C23.9333 30.5 23 32 23 33"
          stroke="white"/>
</svg>
